# Blender v2.93.1 OBJ File: ''
# www.blender.org
mtllib impact model.mtl
o Torus
v 1.250000 0.000000 0.000000
v 1.097139 0.125486 0.000046
v 1.125000 0.302613 0.000000
v 1.000000 0.336106 0.000000
v 0.875000 0.216506 0.000000
v 0.783494 0.125000 0.000000
v 0.057338 0.010239 0.000000
v 0.883883 0.011458 -0.883884
v 0.775716 0.137165 -0.775936
v 0.795495 0.314071 -0.795495
v 0.707107 0.347564 -0.707107
v 0.618718 0.227964 -0.618719
v 0.554014 0.136458 -0.554014
v 0.040544 0.021697 -0.040544
v 0.000000 0.000000 -1.250000
v -0.000266 0.125486 -1.097359
v 0.000000 0.302613 -1.125000
v 0.000000 0.336106 -1.000000
v 0.000000 0.216506 -0.875000
v 0.000000 0.125000 -0.783494
v -0.000000 0.010239 -0.057338
v -0.647149 -0.119418 -0.990263
v -0.534954 0.003768 -0.884366
v -0.558761 0.183194 -0.901875
v -0.470372 0.216688 -0.813487
v -0.381984 0.097088 -0.725098
v -0.317279 0.005582 -0.660394
v -0.040544 0.010239 -0.040544
v -1.250000 0.000000 -0.000000
v -1.097671 0.125486 0.000046
v -1.125000 0.302613 -0.000000
v -1.000000 0.336106 -0.000000
v -0.875000 0.216506 -0.000000
v -0.783494 0.125000 -0.000000
v -0.057338 0.010239 0.000000
v -1.010124 -0.093973 0.971134
v -0.904921 0.029703 0.864960
v -0.921736 0.208639 0.882745
v -0.833348 0.242133 0.794357
v -0.744959 0.122533 0.705969
v -0.680254 0.031027 0.641264
v -0.166785 -0.083734 0.127795
v 0.000000 0.000000 1.250000
v -0.000266 0.125486 1.097451
v 0.000000 0.302613 1.125000
v 0.000000 0.336106 1.000000
v 0.000000 0.216506 0.875000
v 0.000000 0.125000 0.783494
v -0.000000 0.010239 0.057338
v 0.883883 0.000000 0.883884
v 0.775716 0.125486 0.776029
v 0.795495 0.302613 0.795496
v 0.707106 0.336106 0.707107
v 0.618718 0.216506 0.618719
v 0.554013 0.125000 0.554014
v 0.040544 0.010239 0.040544
v -0.000000 0.021697 0.000000
vt 0.500000 0.500000
vt 0.625000 0.500000
vt 0.625000 0.583333
vt 0.500000 0.583333
vt 0.625000 0.666667
vt 0.500000 0.666667
vt 0.625000 0.750000
vt 0.500000 0.750000
vt 0.625000 0.833333
vt 0.500000 0.833333
vt 0.625000 0.916667
vt 0.500000 0.916667
vt 0.625000 1.000000
vt 0.500000 1.000000
vt 0.750000 0.500000
vt 0.750000 0.583333
vt 0.750000 0.666667
vt 0.750000 0.750000
vt 0.750000 0.833333
vt 0.750000 0.916667
vt 0.750000 1.000000
vt 0.875000 0.500000
vt 0.875000 0.583333
vt 0.875000 0.666667
vt 0.875000 0.750000
vt 0.875000 0.833333
vt 0.875000 0.916667
vt 0.875000 1.000000
vt 1.000000 0.500000
vt 1.000000 0.583333
vt 1.000000 0.666667
vt 1.000000 0.750000
vt 1.000000 0.833333
vt 1.000000 0.916667
vt 1.000000 1.000000
vt 0.000000 0.500000
vt 0.125000 0.500000
vt 0.125000 0.583333
vt 0.000000 0.583333
vt 0.125000 0.666667
vt 0.000000 0.666667
vt 0.125000 0.750000
vt 0.000000 0.750000
vt 0.125000 0.833333
vt 0.000000 0.833333
vt 0.125000 0.916667
vt 0.000000 0.916667
vt 0.125000 1.000000
vt 0.000000 1.000000
vt 0.250000 0.500000
vt 0.250000 0.583333
vt 0.250000 0.666667
vt 0.250000 0.750000
vt 0.250000 0.833333
vt 0.250000 0.916667
vt 0.250000 1.000000
vt 0.375000 0.500000
vt 0.375000 0.583333
vt 0.375000 0.666667
vt 0.375000 0.750000
vt 0.375000 0.833333
vt 0.375000 0.916667
vt 0.375000 1.000000
vt 0.375000 1.000000
vn 0.6176 0.7473 -0.2454
vn 0.9135 -0.1440 -0.3805
vn 0.2625 0.9603 -0.0941
vn -0.6603 0.6946 0.2855
vn -0.6739 0.6785 0.2924
vn -0.1423 0.9851 0.0969
vn 0.2455 0.7470 -0.6179
vn 0.3805 -0.1433 -0.9136
vn 0.0941 0.9603 -0.2625
vn -0.2855 0.6946 0.6603
vn -0.2924 0.6785 0.6739
vn -0.0969 0.9851 0.1423
vn -0.3734 0.7441 -0.5540
vn -0.3400 -0.1402 -0.9299
vn -0.2885 0.9412 -0.1760
vn 0.0951 0.6820 0.7251
vn 0.0659 0.6612 0.7473
vn -0.2666 0.9546 0.1329
vn -0.5256 0.7388 -0.4218
vn -0.8450 -0.1465 -0.5143
vn -0.1920 0.9478 -0.2547
vn 0.6448 0.6938 0.3209
vn 0.6543 0.6774 0.3362
vn 0.1488 0.9867 -0.0655
vn -0.6280 0.7450 0.2250
vn -0.9699 -0.1305 0.2056
vn -0.2350 0.9588 0.1593
vn 0.7337 0.6768 -0.0603
vn 0.7532 0.6566 -0.0388
vn 0.2687 0.9352 0.2307
vn -0.2398 0.7460 0.6212
vn -0.2363 -0.1335 0.9625
vn -0.1623 0.9587 0.2337
vn 0.0912 0.6815 -0.7261
vn 0.0753 0.6626 -0.7451
vn -0.1890 0.9486 -0.2539
vn 0.2544 0.7471 0.6141
vn 0.3788 -0.1428 0.9144
vn 0.1066 0.9604 0.2573
vn -0.2753 0.6946 -0.6646
vn -0.2811 0.6786 -0.6786
vn -0.0645 0.9857 -0.1558
vn 0.6137 0.7475 0.2542
vn 0.9143 -0.1437 0.3787
vn 0.2573 0.9604 0.1066
vn -0.6646 0.6946 -0.2753
vn -0.6786 0.6786 -0.2811
vn -0.1558 0.9857 -0.0645
vn 0.1953 0.9774 0.0809
vn -0.1715 0.8580 0.4841
vn 0.1923 0.9623 0.1923
vn -0.1953 0.9774 -0.0809
vn -0.4252 0.8876 0.1774
vn -0.1923 0.9623 -0.1923
vn 0.0809 0.9774 0.1953
vn -0.0809 0.9774 -0.1953
usemtl None
s off
f 1/1/1 8/2/1 9/3/1 2/4/1
f 2/4/2 9/3/2 10/5/2 3/6/2
f 3/6/3 10/5/3 11/7/3 4/8/3
f 4/8/4 11/7/4 12/9/4 5/10/4
f 5/10/5 12/9/5 13/11/5 6/12/5
f 6/12/6 13/11/6 14/13/6 7/14/6
f 8/2/7 15/15/7 16/16/7 9/3/7
f 9/3/8 16/16/8 17/17/8 10/5/8
f 10/5/9 17/17/9 18/18/9 11/7/9
f 11/7/10 18/18/10 19/19/10 12/9/10
f 12/9/11 19/19/11 20/20/11 13/11/11
f 13/11/12 20/20/12 21/21/12 14/13/12
f 15/15/13 22/22/13 23/23/13 16/16/13
f 16/16/14 23/23/14 24/24/14 17/17/14
f 17/17/15 24/24/15 25/25/15 18/18/15
f 18/18/16 25/25/16 26/26/16 19/19/16
f 19/19/17 26/26/17 27/27/17 20/20/17
f 20/20/18 27/27/18 28/28/18 21/21/18
f 22/22/19 29/29/19 30/30/19 23/23/19
f 23/23/20 30/30/20 31/31/20 24/24/20
f 24/24/21 31/31/21 32/32/21 25/25/21
f 25/25/22 32/32/22 33/33/22 26/26/22
f 26/26/23 33/33/23 34/34/23 27/27/23
f 27/27/24 34/34/24 35/35/24 28/28/24
f 29/36/25 36/37/25 37/38/25 30/39/25
f 30/39/26 37/38/26 38/40/26 31/41/26
f 31/41/27 38/40/27 39/42/27 32/43/27
f 32/43/28 39/42/28 40/44/28 33/45/28
f 33/45/29 40/44/29 41/46/29 34/47/29
f 34/47/30 41/46/30 42/48/30 35/49/30
f 36/37/31 43/50/31 44/51/31 37/38/31
f 37/38/32 44/51/32 45/52/32 38/40/32
f 38/40/33 45/52/33 46/53/33 39/42/33
f 39/42/34 46/53/34 47/54/34 40/44/34
f 40/44/35 47/54/35 48/55/35 41/46/35
f 41/46/36 48/55/36 49/56/36 42/48/36
f 43/50/37 50/57/37 51/58/37 44/51/37
f 44/51/38 51/58/38 52/59/38 45/52/38
f 45/52/39 52/59/39 53/60/39 46/53/39
f 46/53/40 53/60/40 54/61/40 47/54/40
f 47/54/41 54/61/41 55/62/41 48/55/41
f 48/55/42 55/62/42 56/63/42 49/56/42
f 50/57/43 1/1/43 2/4/43 51/58/43
f 51/58/44 2/4/44 3/6/44 52/59/44
f 52/59/45 3/6/45 4/8/45 53/60/45
f 53/60/46 4/8/46 5/10/46 54/61/46
f 54/61/47 5/10/47 6/12/47 55/62/47
f 55/62/48 6/12/48 7/14/48 56/63/48
f 7/14/49 57/64/49 56/63/49
f 42/48/50 57/64/50 35/49/50
f 57/64/51 7/14/51 14/13/51
f 35/49/52 57/64/52 28/28/52
f 49/56/53 57/64/53 42/48/53
f 21/21/54 57/64/54 14/13/54
f 56/63/55 57/64/55 49/56/55
f 28/28/56 57/64/56 21/21/56
